<svg xmlns="http://www.w3.org/2000/svg" fill="currentColor" width="600" zoomAndPan="magnify"
     viewBox="0 0 450 449.999984" height="600" preserveAspectRatio="xMidYMid meet" version="1.0">
    <path d="M 99.324219 283.609375 C 88.859375 285.972656 76.960938 293.769531 76.730469 304.546875 L 77.058594 369.324219 C 77.058594 417.585938 70.675781 426.914062 101.902344 424.175781 L 116.667969 422.355469 C 121.492188 422.15625 125.628906 431.921875 118.179688 433.753906 C 76.320312 444.078125 53.847656 447.765625 10.554688 450.027344 C 0.992188 450.527344 1.117188 440.84375 9.632812 438.535156 L 24.140625 434.625 C 43.511719 429.164062 40.101562 412.703125 39.371094 369.324219 L 39.371094 203.867188 C 39.371094 155.609375 40 158.597656 34.941406 164.957031 L 28.582031 173.507812 C 22.425781 180.894531 6.148438 173.234375 14.082031 162.246094 C 18.398438 156.273438 22.875 150.082031 29.230469 139.996094 C 33.855469 132.65625 53.804688 135.636719 101.558594 134.042969 C 108.226562 133.824219 110.933594 145.882812 102.636719 146.71875 L 97.660156 147.863281 C 75.035156 149.796875 77.058594 155.609375 77.058594 203.867188 L 76.730469 256.742188 C 78.191406 269.347656 90.5 266.992188 99.324219 265.226562 L 217.53125 243.167969 C 225.84375 240.910156 236.3125 238.117188 236.496094 226.617188 L 236.496094 173.765625 C 236.496094 125.503906 228.839844 128.230469 214.886719 130.078125 L 200.695312 132.589844 C 191.222656 134.320312 188.625 122.144531 199.019531 118.996094 C 210.507812 115.523438 218.097656 112.628906 238.519531 108.402344 C 253.617188 105.28125 289.808594 104.359375 310.492188 103.441406 C 313.25 104.820312 314.167969 113.09375 311.410156 114.933594 L 301.761719 115.847656 C 271.816406 118.949219 274.183594 133.5625 274.183594 173.765625 L 274.183594 339.21875 C 276.785156 387.445312 278.222656 386.828125 309.023438 376.523438 C 333.5625 368.3125 221.179688 418.566406 202.851562 421.164062 C 196.210938 422.109375 195.054688 410.769531 201.601562 409.261719 L 211.878906 406.390625 C 235.542969 398.867188 239.375 404.746094 236.859375 354.960938 L 236.496094 274.417969 C 236.816406 262.351562 229.738281 259.171875 217.53125 261.550781 Z M 99.324219 283.609375 "
    />
    <path d="M 362.210938 100.117188 C 335.863281 94.152344 308.738281 96.710938 276.441406 101.351562 C 258.015625 104 252.765625 104.988281 230.863281 110.035156 C 225.46875 111.277344 235.054688 124.03125 238.210938 124.605469 C 240.03125 124.9375 272.402344 122.953125 287.113281 119.132812 C 390.523438 92.324219 412.265625 180.679688 412.265625 231.234375 C 412.265625 316.722656 343.328125 372.328125 283.328125 384.070312 C 274.003906 385.894531 223.789062 404.019531 220.152344 408.167969 C 218.917969 409.582031 206.242188 414.996094 205.167969 420.886719 C 230.660156 415.878906 259.660156 409.359375 277.125 405.707031 C 311.769531 398.464844 353.429688 382.515625 379.992188 361.386719 C 432.109375 319.941406 444.011719 282.597656 446.0625 234.585938 C 448.652344 173.96875 408.71875 110.652344 362.210938 100.117188 "
    />
    <path d="M 26.460938 144.304688 C 32.980469 132.625 119.964844 13.058594 124.058594 6.96875 C 129.253906 -0.761719 135.003906 -1.582031 143.757812 4.917969 C 150.898438 10.210938 252.953125 91.980469 258.660156 96.632812 C 264.78125 101.625 267.242188 101.625 291.507812 99.316406 C 296.046875 98.886719 274.917969 108.386719 278.90625 110.925781 C 284.921875 114.757812 288.695312 117.03125 292.007812 119.453125 C 299.121094 124.648438 292.035156 138.835938 279.390625 132.183594 C 268.558594 126.480469 255.410156 118.949219 254.832031 118.589844 C 251.546875 116.535156 151.042969 36.171875 144.632812 30.785156 C 138.59375 25.707031 134.828125 26.699219 130.722656 32.855469 C 126.621094 39.011719 55.875 135.113281 51.695312 143.210938 C 47.320312 151.691406 26.460938 144.304688 26.460938 144.304688 "
    />
    <path d="M 110.449219 212.835938 C 110.449219 214.375 109.660156 215.621094 108.695312 215.621094 C 107.722656 215.621094 106.9375 214.773438 106.9375 212.835938 L 106.9375 186.585938 C 106.9375 184.324219 107.375 184.078125 108.695312 183.796875 C 109.660156 183.796875 110.449219 185.046875 110.449219 186.585938 Z M 110.449219 212.835938 "
    />
    <path d="M 138.273438 207.863281 C 138.273438 209.398438 137.488281 210.648438 136.515625 210.648438 C 135.542969 210.648438 134.757812 209.398438 134.757812 207.863281 L 134.757812 181.613281 C 134.757812 180.074219 135.542969 178.824219 136.515625 178.824219 C 137.488281 178.824219 138.273438 180.074219 138.273438 181.613281 Z M 138.273438 207.863281 "
    />
    <path d="M 110.574219 215.523438 C 108.410156 215.949219 107.753906 215.246094 107.574219 214.269531 C 107.390625 213.296875 108.449219 212.273438 109.921875 211.988281 L 135.261719 207.550781 C 136.734375 207.269531 138.273438 206.902344 138.253906 208.804688 C 138.433594 209.785156 137.382812 210.804688 135.902344 211.089844 Z M 110.574219 215.523438 "
    />
    <path d="M 109.957031 186.875 C 108.476562 187.160156 107.136719 186.601562 106.957031 185.621094 C 106.773438 184.644531 107.828125 183.621094 109.300781 183.335938 L 134.644531 178.902344 C 137.65625 178.519531 137.453125 179.175781 137.632812 180.152344 C 137.816406 181.132812 136.765625 182.15625 135.285156 182.4375 Z M 109.957031 186.875 "
    />
    <path d="M 176.574219 201.410156 C 176.574219 202.949219 175.785156 204.195312 174.820312 204.195312 C 173.84375 204.195312 173.058594 203.347656 173.058594 201.410156 L 173.058594 175.160156 C 173.058594 172.898438 173.5 172.652344 174.820312 172.371094 C 175.785156 172.371094 176.574219 173.621094 176.574219 175.160156 Z M 176.574219 201.410156 "
    />
    <path d="M 204.421875 196.476562 C 204.421875 198.011719 203.636719 199.261719 202.664062 199.261719 C 201.691406 199.261719 200.90625 198.011719 200.90625 196.476562 L 200.90625 170.226562 C 200.90625 168.683594 201.691406 167.4375 202.664062 167.4375 C 203.636719 167.4375 204.421875 168.683594 204.421875 170.226562 Z M 204.421875 196.476562 "
    />
    <path d="M 176.695312 204.09375 C 174.53125 204.523438 173.875 203.820312 173.699219 202.84375 C 173.515625 201.871094 174.570312 200.84375 176.046875 200.5625 L 201.40625 196.164062 C 202.882812 195.882812 204.421875 195.515625 204.402344 197.417969 C 204.578125 198.398438 203.53125 199.417969 202.054688 199.703125 Z M 176.695312 204.09375 "
    />
    <path d="M 176.078125 175.445312 C 174.601562 175.734375 173.257812 175.175781 173.082031 174.195312 C 172.898438 173.21875 173.953125 172.195312 175.425781 171.910156 L 200.789062 167.515625 C 203.804688 167.132812 203.601562 167.789062 203.78125 168.765625 C 203.960938 169.746094 202.910156 170.765625 201.433594 171.050781 Z M 176.078125 175.445312 "
    />
    <path d="M 73.996094 84.390625 C 73.996094 85.75 72.890625 86.851562 71.535156 86.851562 C 70.175781 86.851562 69.070312 85.75 69.070312 84.390625 L 69.070312 17.910156 C 69.070312 16.550781 70.175781 15.449219 71.535156 15.449219 C 72.890625 15.449219 73.996094 16.550781 73.996094 17.910156 Z M 73.996094 84.390625 "
    />
    <path d="M 92.871094 71.121094 C 92.871094 72.480469 91.769531 73.585938 90.410156 73.585938 C 89.050781 73.585938 87.949219 72.480469 87.949219 71.121094 L 87.949219 17.914062 C 87.949219 16.550781 89.050781 15.449219 90.410156 15.449219 C 91.769531 15.449219 92.871094 16.550781 92.871094 17.914062 Z M 92.871094 71.121094 "
    />
    <path d="M 90.410156 15.449219 C 91.769531 15.449219 92.871094 16.550781 92.871094 17.910156 C 92.871094 19.269531 91.769531 20.375 90.410156 20.375 L 71.535156 20.375 C 70.175781 20.375 69.070312 19.269531 69.070312 17.910156 C 69.070312 16.550781 70.175781 15.449219 71.535156 15.449219 Z M 90.410156 15.449219 "
    />
    <path d="M 85.792969 28.425781 C 85.792969 28.851562 85.449219 29.195312 85.023438 29.195312 L 76.917969 29.195312 C 76.492188 29.195312 76.148438 28.851562 76.148438 28.425781 C 76.148438 28.003906 76.492188 27.660156 76.917969 27.660156 L 85.023438 27.660156 C 85.449219 27.660156 85.792969 28.003906 85.792969 28.425781 "
    />
    <path d="M 85.792969 35.609375 C 85.792969 36.03125 85.449219 36.375 85.023438 36.375 L 76.917969 36.375 C 76.492188 36.375 76.148438 36.03125 76.148438 35.609375 C 76.148438 35.183594 76.492188 34.839844 76.917969 34.839844 L 85.023438 34.839844 C 85.449219 34.839844 85.792969 35.183594 85.792969 35.609375 "
    />
</svg>
