<?xml version="1.0" encoding="UTF-8" standalone="no"?>
<svg
   xmlns:dc="http://purl.org/dc/elements/1.1/"
   xmlns:cc="http://creativecommons.org/ns#"
   xmlns:rdf="http://www.w3.org/1999/02/22-rdf-syntax-ns#"
   xmlns:svg="http://www.w3.org/2000/svg"
   xmlns="http://www.w3.org/2000/svg"
   version="1.1"
   id="svg10"
   xml:space="preserve"
   width="256"
   height="256"
   viewBox="0 0 256 256"><metadata
     id="metadata16"><rdf:RDF><cc:Work
         rdf:about=""><dc:format>image/svg+xml</dc:format><dc:type
           rdf:resource="http://purl.org/dc/dcmitype/StillImage" /><dc:title></dc:title></cc:Work></rdf:RDF></metadata><defs
     id="defs14"><clipPath
       clipPathUnits="userSpaceOnUse"
       id="clipPath26"><path
         d="M 0,595.28 H 841.89 V 0 H 0 Z"
         id="path24" /></clipPath></defs><g
     id="g18"
     transform="matrix(1.3333333,0,0,-1.3333333,-365.51488,447.75728)"><g
       id="g20"
       transform="matrix(1.4007187,0,0,1.4007187,-108.43863,-134.804)"><g
         id="g22"
         clip-path="url(#clipPath26)"><g
           id="g28"
           transform="translate(303.3823,249.5967)"><path
             d="m 0,0 c -3.188,-0.719 -6.812,-3.094 -6.882,-6.377 l 0.1,-19.732 c 0,-14.701 -1.945,-17.542 7.567,-16.708 l 4.498,0.555 c 1.469,0.06 2.729,-2.914 0.46,-3.473 -12.75,-3.144 -19.595,-4.268 -32.783,-4.956 -2.912,-0.153 -2.875,2.797 -0.28,3.5 l 4.419,1.191 c 5.9,1.664 4.861,6.678 4.639,19.891 V 24.29 c 0,14.7 0.192,13.79 -1.349,11.853 l -1.938,-2.605 c -1.875,-2.25 -6.833,0.083 -4.416,3.43 1.315,1.82 2.678,3.705 4.614,6.778 1.409,2.236 7.485,1.328 22.031,1.813 2.032,0.067 2.856,-3.606 0.329,-3.861 L -0.507,41.35 C -7.399,40.76 -6.782,38.99 -6.782,24.29 L -6.882,8.184 C -6.437,4.344 -2.688,5.062 0,5.6 l 36.006,6.719 c 2.532,0.688 5.721,1.539 5.777,5.041 v 16.1 c 0,14.7 -2.332,13.87 -6.582,13.307 l -4.323,-0.765 c -2.885,-0.527 -3.677,3.182 -0.51,4.14 3.499,1.058 5.811,1.94 12.032,3.227 4.598,0.951 15.623,1.232 21.923,1.511 0.84,-0.42 1.12,-2.94 0.28,-3.5 l -2.94,-0.279 c -9.121,-0.944 -8.4,-5.396 -8.4,-17.641 v -50.399 c 0.792,-14.69 1.23,-14.502 10.612,-11.363 7.475,2.501 -26.757,-12.806 -32.34,-13.598 -2.023,-0.288 -2.375,3.167 -0.381,3.626 l 3.131,0.874 c 7.208,2.292 8.375,0.501 7.609,15.666 L 41.783,2.8 c 0.098,3.676 -2.058,4.644 -5.777,3.92 z"
             style="fill:#1d1d1b;fill-opacity:1;fill-rule:nonzero;stroke:none"
             id="path30" /></g><g
           id="g32"
           transform="translate(383.4585,305.4893)"><path
             d="m 0,0 c -8.025,1.818 -16.288,1.038 -26.125,-0.375 -5.613,-0.807 -7.212,-1.108 -13.884,-2.646 -1.643,-0.378 1.277,-4.263 2.238,-4.438 0.555,-0.101 10.415,0.504 14.896,1.667 31.5,8.166 38.122,-18.747 38.122,-34.147 0,-26.04 -20.998,-42.978 -39.275,-46.554 -2.84,-0.556 -18.136,-6.077 -19.243,-7.341 -0.376,-0.43 -4.238,-2.079 -4.565,-3.874 7.765,1.526 16.599,3.512 21.919,4.624 10.553,2.206 23.243,7.065 31.334,13.5 15.875,12.625 19.5,24 20.125,38.625 C 26.331,-22.495 14.167,-3.209 0,0"
             style="fill:#1d1d1b;fill-opacity:1;fill-rule:nonzero;stroke:none"
             id="path34" /></g><g
           id="g36"
           transform="translate(281.1875,292.0303)"><path
             d="m 0,0 c 1.986,3.558 28.482,39.978 29.729,41.833 1.583,2.355 3.334,2.605 6,0.625 2.175,-1.613 33.262,-26.52 35,-27.937 C 72.594,13 73.344,13 80.735,13.703 82.118,13.834 75.681,10.94 76.896,10.167 78.729,9 79.878,8.308 80.887,7.57 83.054,5.987 80.896,1.666 77.044,3.692 c -3.3,1.737 -7.305,4.031 -7.481,4.141 -1,0.625 -31.614,25.105 -33.567,26.746 -1.84,1.546 -2.987,1.244 -4.237,-0.631 C 30.509,32.073 8.96,2.799 7.687,0.333 6.354,-2.25 0,0 0,0"
             style="fill:#1d1d1b;fill-opacity:1;fill-rule:nonzero;stroke:none"
             id="path38" /></g><g
           id="g40"
           transform="translate(306.771,271.1553)"><path
             d="m 0,0 c 0,-0.469 -0.24,-0.849 -0.534,-0.849 -0.297,0 -0.536,0.258 -0.536,0.849 v 7.996 c 0,0.688 0.134,0.764 0.536,0.849 C -0.24,8.845 0,8.465 0,7.996 Z"
             style="fill:#1d1d1b;fill-opacity:1;fill-rule:nonzero;stroke:none"
             id="path42" /></g><g
           id="g44"
           transform="translate(315.2461,272.6699)"><path
             d="m 0,0 c 0,-0.468 -0.239,-0.849 -0.535,-0.849 -0.296,0 -0.535,0.381 -0.535,0.849 v 7.996 c 0,0.469 0.239,0.849 0.535,0.849 C -0.239,8.845 0,8.465 0,7.996 Z"
             style="fill:#1d1d1b;fill-opacity:1;fill-rule:nonzero;stroke:none"
             id="path46" /></g><g
           id="g48"
           transform="translate(306.8086,270.3369)"><path
             d="m 0,0 c -0.659,-0.13 -0.859,0.084 -0.913,0.381 -0.056,0.297 0.266,0.609 0.715,0.695 L 7.52,2.428 C 7.969,2.514 8.438,2.625 8.432,2.046 8.486,1.748 8.167,1.437 7.716,1.35 Z"
             style="fill:#1d1d1b;fill-opacity:1;fill-rule:nonzero;stroke:none"
             id="path50" /></g><g
           id="g52"
           transform="translate(306.6206,279.0635)"><path
             d="m 0,0 c -0.45,-0.087 -0.859,0.083 -0.913,0.381 -0.056,0.298 0.265,0.609 0.714,0.696 L 7.52,2.428 C 8.438,2.544 8.376,2.345 8.431,2.047 8.486,1.748 8.166,1.437 7.715,1.351 Z"
             style="fill:#1d1d1b;fill-opacity:1;fill-rule:nonzero;stroke:none"
             id="path54" /></g><g
           id="g56"
           transform="translate(326.9126,274.6357)"><path
             d="m 0,0 c 0,-0.469 -0.24,-0.849 -0.534,-0.849 -0.297,0 -0.536,0.258 -0.536,0.849 v 7.996 c 0,0.688 0.134,0.764 0.536,0.849 C -0.24,8.845 0,8.465 0,7.996 Z"
             style="fill:#1d1d1b;fill-opacity:1;fill-rule:nonzero;stroke:none"
             id="path58" /></g><g
           id="g60"
           transform="translate(335.395,276.1387)"><path
             d="m 0,0 c 0,-0.468 -0.239,-0.849 -0.535,-0.849 -0.296,0 -0.535,0.381 -0.535,0.849 v 7.996 c 0,0.469 0.239,0.849 0.535,0.849 C -0.239,8.845 0,8.465 0,7.996 Z"
             style="fill:#1d1d1b;fill-opacity:1;fill-rule:nonzero;stroke:none"
             id="path62" /></g><g
           id="g64"
           transform="translate(326.9502,273.8174)"><path
             d="m 0,0 c -0.659,-0.13 -0.859,0.084 -0.913,0.381 -0.056,0.297 0.266,0.609 0.715,0.695 l 7.725,1.34 C 7.976,2.502 8.445,2.613 8.439,2.034 8.493,1.736 8.174,1.425 7.724,1.338 Z"
             style="fill:#1d1d1b;fill-opacity:1;fill-rule:nonzero;stroke:none"
             id="path66" /></g><g
           id="g68"
           transform="translate(326.7622,282.5439)"><path
             d="m 0,0 c -0.45,-0.087 -0.859,0.083 -0.913,0.381 -0.056,0.298 0.265,0.609 0.714,0.696 L 7.527,2.416 C 8.445,2.532 8.384,2.333 8.438,2.035 8.493,1.736 8.173,1.426 7.723,1.339 Z"
             style="fill:#1d1d1b;fill-opacity:1;fill-rule:nonzero;stroke:none"
             id="path70" /></g><g
           id="g72"
           transform="translate(295.667,310.2803)"><path
             d="M 0,0 C 0,-0.414 -0.336,-0.75 -0.75,-0.75 -1.164,-0.75 -1.5,-0.414 -1.5,0 V 20.25 C -1.5,20.664 -1.164,21 -0.75,21 -0.336,21 0,20.664 0,20.25 Z"
             style="fill:#1d1d1b;fill-opacity:1;fill-rule:nonzero;stroke:none"
             id="path74" /></g><g
           id="g76"
           transform="translate(301.417,314.3218)"><path
             d="m 0,0 c 0,-0.414 -0.336,-0.75 -0.75,-0.75 -0.414,0 -0.75,0.336 -0.75,0.75 v 16.208 c 0,0.415 0.336,0.75 0.75,0.75 0.414,0 0.75,-0.335 0.75,-0.75 z"
             style="fill:#1d1d1b;fill-opacity:1;fill-rule:nonzero;stroke:none"
             id="path78" /></g><g
           id="g80"
           transform="translate(300.667,331.2803)"><path
             d="M 0,0 C 0.414,0 0.75,-0.336 0.75,-0.75 0.75,-1.164 0.414,-1.5 0,-1.5 h -5.75 c -0.414,0 -0.75,0.336 -0.75,0.75 0,0.414 0.336,0.75 0.75,0.75 z"
             style="fill:#1d1d1b;fill-opacity:1;fill-rule:nonzero;stroke:none"
             id="path82" /></g><g
           id="g84"
           transform="translate(299.2607,327.3271)"><path
             d="m 0,0 c 0,-0.129 -0.105,-0.234 -0.234,-0.234 h -2.469 c -0.13,0 -0.235,0.105 -0.235,0.234 0,0.129 0.105,0.234 0.235,0.234 h 2.469 C -0.105,0.234 0,0.129 0,0"
             style="fill:#1d1d1b;fill-opacity:1;fill-rule:nonzero;stroke:none"
             id="path86" /></g><g
           id="g88"
           transform="translate(299.2607,325.1396)"><path
             d="m 0,0 c 0,-0.129 -0.105,-0.234 -0.234,-0.234 h -2.469 c -0.13,0 -0.235,0.105 -0.235,0.234 0,0.129 0.105,0.234 0.235,0.234 h 2.469 C -0.105,0.234 0,0.129 0,0"
             style="fill:#1d1d1b;fill-opacity:1;fill-rule:nonzero;stroke:none"
             id="path90" /></g></g></g></g></svg>
